# xmcd
#
# Track frame offsets:
#	150
#	19280
#	39462
#	49747
#	71160
#	90582
#	111695
#	125170
#
# Disc length: 1867 seconds
#
# Revision: 3
# Processed by: cddbd v1.5.2PL0 Copyright (c) Steve Scherf et al.
# Submitted via: EasyCDDAExtractor 15.3.0.1
#
DISCID=76074908
DTITLE=Jerry Rivera - Para Siempre [Forever]
DYEAR=2000
DGENRE=Latin
TTITLE0=Amor De Novela
TTITLE1=Navegandote
TTITLE2=Una Puerta Abierta
TTITLE3=La Oportunidad
TTITLE4=Para Siempre
TTITLE5=Cuando Te Vayas
TTITLE6=Se Fue Tu Amor
TTITLE7=Navegandote (Ballad Version)
EXTD=
EXTT0=
EXTT1=
EXTT2=
EXTT3=
EXTT4=
EXTT5=
EXTT6=
EXTT7=
PLAYORDER=
